<svg width="149" height="31" viewBox="0 0 149 31" fill="none" xmlns="http://www.w3.org/2000/svg">
<path d="M148.193 2.46387H0V7.43866e-05H148.193V2.46387Z" fill="url(#paint0_linear_407_2333)"/>
<path d="M148.193 31H0V28.5362H148.193V31Z" fill="url(#paint1_linear_407_2333)"/>
<path d="M14.2747 8.03857H4.69507V9.06629H8.66105V21.9684H10.2885V9.06629H14.2747V8.03857Z" fill="#7B52AB"/>
<path d="M22.2674 8.98205C24.2386 8.98205 25.2697 10.0738 25.2697 12.3685C25.2697 15.0035 24.2184 15.8391 22.4595 15.8391H20.7242V8.98205H22.2674ZM22.4595 8.03857H19.0967V21.9684H20.7242V16.8028H22.847L26.0414 21.9684H27.9047L24.4105 16.5029C25.8257 15.9469 26.9815 14.6396 26.9815 12.3044C26.9815 9.53803 25.2697 8.03857 22.4595 8.03857Z" fill="#7B52AB"/>
<path d="M41.2785 20.9406H34.9337V15.4112H40.3115V14.4239H34.9337V9.06629H40.8068V8.03857H33.3062V21.9684H41.2785V20.9406Z" fill="#7B52AB"/>
<path d="M56.7481 8.03857H55.5721V19.0099L55.6362 19.5254L48.5196 8.03857H46.8281V21.9684H48.0075V10.7612L47.8996 10.094H47.9199L55.3363 21.9684H56.7481V8.03857Z" fill="#7B52AB"/>
<path d="M67.679 9.06629C70.6577 9.06629 72.2448 10.9735 72.2448 15.0473C72.2448 19.0975 70.6577 20.9406 67.6993 20.9406H65.0643V9.06629H67.679ZM63.4368 21.9684H67.679C71.709 21.9684 74.0004 19.5692 74.0004 15.0473C74.0004 10.4815 71.645 8.03857 67.679 8.03857H63.4368V21.9684Z" fill="#7B52AB"/>
<path d="M101.132 8.03857H99.2451L94.339 19.9736H94.3188L89.4093 8.03857H87.4179L87.4381 8.1026L87.3943 8.03857L87.3303 21.9684H88.5097L88.5535 10.03L93.3955 21.9684H94.7029L99.5248 10.03H99.545L99.609 21.9684H101.196L101.132 8.03857Z" fill="#7B52AB"/>
<path d="M111.719 9.28194L114.142 16.8028H109.253L111.719 9.28194ZM111.055 8.03857L106.362 21.9684H107.497L108.953 17.6823H114.418L115.877 21.9684H117.569L112.963 8.03857H111.055Z" fill="#7B52AB"/>
<path d="M130.535 20.9406H124.342V8.03857H122.714V21.9684H130.535V20.9406Z" fill="#7B52AB"/>
<path d="M143.285 20.9406H137.092V8.03857H135.465V21.9684H143.285V20.9406Z" fill="#7B52AB"/>
<defs>
<linearGradient id="paint0_linear_407_2333" x1="0" y1="2.46387" x2="148.11" y2="-2.48374" gradientUnits="userSpaceOnUse">
<stop stop-color="#00DDFF"/>
<stop offset="1" stop-color="#FF00D4"/>
</linearGradient>
<linearGradient id="paint1_linear_407_2333" x1="0" y1="31" x2="148.11" y2="26.0524" gradientUnits="userSpaceOnUse">
<stop stop-color="#00DDFF"/>
<stop offset="1" stop-color="#FF00D4"/>
</linearGradient>
</defs>
</svg>
